<svg xmlns="http://www.w3.org/2000/svg" xmlns:xlink="http://www.w3.org/1999/xlink" version="1.1" width="738.28" height="108.53" viewBox="0 0 738.28 108.53">
<path transform="matrix(1,0,0,-1,28.984002,107.892)" stroke-width="1.27559" stroke-linecap="butt" stroke-miterlimit="10" stroke-linejoin="miter" fill="none" stroke="#ffffff" d="M-28.3468 0H708.6702V6.7467H-28.3468Z"/>
<path transform="matrix(1,0,0,-1,28.984002,107.892)" stroke-width="1.27559" stroke-linecap="butt" stroke-miterlimit="10" stroke-linejoin="miter" fill="none" stroke="#ffffff" d="M7.79044 6.7467 59.06998 95.56535V100.50409H54.13124L0 6.7467Z"/>
<path transform="matrix(1,0,0,-1,28.984002,107.892)" stroke-width="1.27559" stroke-linecap="butt" stroke-miterlimit="10" stroke-linejoin="miter" fill="none" stroke="#ffffff" d="M672.53298 6.7467 621.2534 95.56535V100.50409H626.1922L680.3234 6.7467Z"/>
<path transform="matrix(1,0,0,-1,28.984002,107.892)" stroke-width="1.27559" stroke-linecap="butt" stroke-miterlimit="10" stroke-linejoin="miter" fill="none" stroke="#ffffff" d="M110.34952 6.7467 59.06998 95.56535V100.50409H64.00868L115.28822 11.68544V6.7467Z"/>
<path transform="matrix(1,0,0,-1,28.984002,107.892)" stroke-width="1.27559" stroke-linecap="butt" stroke-miterlimit="10" stroke-linejoin="miter" fill="none" stroke="#ffffff" d="M120.22694 6.7467 171.5065 95.56535V100.50409H166.56777L115.28822 11.68544V6.7467Z"/>
<path transform="matrix(1,0,0,-1,28.984002,107.892)" stroke-width="1.27559" stroke-linecap="butt" stroke-miterlimit="10" stroke-linejoin="miter" fill="none" stroke="#ffffff" d="M222.78604 6.7467 171.5065 95.56535V100.50409H176.4452L227.72475 11.68544V6.7467Z"/>
<path transform="matrix(1,0,0,-1,28.984002,107.892)" stroke-width="1.27559" stroke-linecap="butt" stroke-miterlimit="10" stroke-linejoin="miter" fill="none" stroke="#ffffff" d="M232.6639 6.7467 283.94346 95.56535V100.50409H279.00474L227.72475 11.68544V6.7467Z"/>
<path transform="matrix(1,0,0,-1,28.984002,107.892)" stroke-width="1.27559" stroke-linecap="butt" stroke-miterlimit="10" stroke-linejoin="miter" fill="none" stroke="#ffffff" d="M335.223 6.7467 283.94346 95.56535V100.50409H288.88218L340.1617 11.68544V6.7467Z"/>
<path transform="matrix(1,0,0,-1,28.984002,107.892)" stroke-width="1.27559" stroke-linecap="butt" stroke-miterlimit="10" stroke-linejoin="miter" fill="none" stroke="#ffffff" d="M345.10044 6.7467 396.37998 95.56535V100.50409H391.44126L340.1617 11.68544V6.7467Z"/>
<path transform="matrix(1,0,0,-1,28.984002,107.892)" stroke-width="1.27559" stroke-linecap="butt" stroke-miterlimit="10" stroke-linejoin="miter" fill="none" stroke="#ffffff" d="M447.6595 6.7467 396.37998 95.56535V100.50409H401.3187L452.59867 11.68544V6.7467Z"/>
<path transform="matrix(1,0,0,-1,28.984002,107.892)" stroke-width="1.27559" stroke-linecap="butt" stroke-miterlimit="10" stroke-linejoin="miter" fill="none" stroke="#ffffff" d="M457.53739 6.7467 508.81694 95.56535V100.50409H503.8782L452.59867 11.68544V6.7467Z"/>
<path transform="matrix(1,0,0,-1,28.984002,107.892)" stroke-width="1.27559" stroke-linecap="butt" stroke-miterlimit="10" stroke-linejoin="miter" fill="none" stroke="#ffffff" d="M560.09646 6.7467 508.81694 95.56535V100.50409H513.7557L565.0352 11.68544V6.7467Z"/>
<path transform="matrix(1,0,0,-1,28.984002,107.892)" stroke-width="1.27559" stroke-linecap="butt" stroke-miterlimit="10" stroke-linejoin="miter" fill="none" stroke="#ffffff" d="M569.9739 6.7467 621.2534 95.56535V100.50409H616.31478L565.0352 11.68544V6.7467Z"/>
<path transform="matrix(1,0,0,-1,28.984002,107.892)" stroke-width="1.27559" stroke-linecap="butt" stroke-miterlimit="10" stroke-linejoin="miter" fill="none" stroke="#ffffff" d="M54.13124 100.50409H626.1922V107.25081H54.13124V100.50409Z"/>
</svg>
