<svg xmlns="http://www.w3.org/2000/svg" xmlns:xlink="http://www.w3.org/1999/xlink" version="1.1" width="738.28" height="158.45" viewBox="0 0 738.28 158.45">
<path transform="matrix(1,0,0,-1,28.984002,157.812)" stroke-width="1.27559" stroke-linecap="butt" stroke-miterlimit="10" stroke-linejoin="miter" fill="none" stroke="#000000" d="M-28.3468 0H708.6702V6.7467H-28.3468Z"/>
<path transform="matrix(1,0,0,-1,28.984002,157.812)" stroke-width="1.27559" stroke-linecap="butt" stroke-miterlimit="10" stroke-linejoin="miter" fill="none" stroke="#000000" d="M0 6.7467H8.43318L107.7651 145.61434V150.43325H102.9462Z"/>
<path transform="matrix(1,0,0,-1,28.984002,157.812)" stroke-width="1.27559" stroke-linecap="butt" stroke-miterlimit="10" stroke-linejoin="miter" fill="none" stroke="#000000" d="M680.3234 6.7467H671.89028L572.5583 145.61434V150.43325H577.3772Z"/>
<path transform="matrix(1,0,0,-1,28.984002,157.812)" stroke-width="1.27559" stroke-linecap="butt" stroke-miterlimit="10" stroke-linejoin="miter" fill="none" stroke="#000000" d="M107.7651 6.7467V150.43325H114.51183V6.7467Z"/>
<path transform="matrix(1,0,0,-1,28.984002,157.812)" stroke-width="1.27559" stroke-linecap="butt" stroke-miterlimit="10" stroke-linejoin="miter" fill="none" stroke="#000000" d="M222.27649 6.7467V150.43325H229.02323V6.7467Z"/>
<path transform="matrix(1,0,0,-1,28.984002,157.812)" stroke-width="1.27559" stroke-linecap="butt" stroke-miterlimit="10" stroke-linejoin="miter" fill="none" stroke="#000000" d="M336.78837 6.7467V150.43325H343.53507V6.7467Z"/>
<path transform="matrix(1,0,0,-1,28.984002,157.812)" stroke-width="1.27559" stroke-linecap="butt" stroke-miterlimit="10" stroke-linejoin="miter" fill="none" stroke="#000000" d="M451.3002 6.7467V150.43325H458.0469V6.7467Z"/>
<path transform="matrix(1,0,0,-1,28.984002,157.812)" stroke-width="1.27559" stroke-linecap="butt" stroke-miterlimit="10" stroke-linejoin="miter" fill="none" stroke="#000000" d="M565.8116 6.7467V150.43325H572.5583V6.7467Z"/>
<path transform="matrix(1,0,0,-1,28.984002,157.812)" stroke-width="1.27559" stroke-linecap="butt" stroke-miterlimit="10" stroke-linejoin="miter" fill="none" stroke="#000000" d="M114.51183 78.58998H119.33418L222.27649 145.61045V150.43325H217.45413L114.51183 83.41278Z"/>
<path transform="matrix(1,0,0,-1,28.984002,157.812)" stroke-width="1.27559" stroke-linecap="butt" stroke-miterlimit="10" stroke-linejoin="miter" fill="none" stroke="#000000" d="M114.51183 78.58998V73.76718L217.45413 6.7467H222.27649V11.5695L119.33418 78.58998Z"/>
<path transform="matrix(1,0,0,-1,28.984002,157.812)" stroke-width="1.27559" stroke-linecap="butt" stroke-miterlimit="10" stroke-linejoin="miter" fill="none" stroke="#000000" d="M229.02323 78.58998H233.84603L336.78837 145.61045V150.43325H331.9655L229.02323 83.41278Z"/>
<path transform="matrix(1,0,0,-1,28.984002,157.812)" stroke-width="1.27559" stroke-linecap="butt" stroke-miterlimit="10" stroke-linejoin="miter" fill="none" stroke="#000000" d="M229.02323 78.58998V73.76718L331.9655 6.7467H336.78837V11.5695L233.84603 78.58998Z"/>
<path transform="matrix(1,0,0,-1,28.984002,157.812)" stroke-width="1.27559" stroke-linecap="butt" stroke-miterlimit="10" stroke-linejoin="miter" fill="none" stroke="#000000" d="M565.8116 78.58998H560.98928L458.0469 145.61045V150.43325H462.86927L565.8116 83.41278Z"/>
<path transform="matrix(1,0,0,-1,28.984002,157.812)" stroke-width="1.27559" stroke-linecap="butt" stroke-miterlimit="10" stroke-linejoin="miter" fill="none" stroke="#000000" d="M565.8116 78.58998V73.76718L462.86927 6.7467H458.0469V11.5695L560.98928 78.58998Z"/>
<path transform="matrix(1,0,0,-1,28.984002,157.812)" stroke-width="1.27559" stroke-linecap="butt" stroke-miterlimit="10" stroke-linejoin="miter" fill="none" stroke="#000000" d="M451.3002 78.58998H446.4774L343.53507 145.61045V150.43325H348.35789L451.3002 83.41278Z"/>
<path transform="matrix(1,0,0,-1,28.984002,157.812)" stroke-width="1.27559" stroke-linecap="butt" stroke-miterlimit="10" stroke-linejoin="miter" fill="none" stroke="#000000" d="M451.3002 78.58998V73.76718L348.35789 6.7467H343.53507V11.5695L446.4774 78.58998Z"/>
<path transform="matrix(1,0,0,-1,28.984002,157.812)" stroke-width="1.27559" stroke-linecap="butt" stroke-miterlimit="10" stroke-linejoin="miter" fill="none" stroke="#000000" d="M102.9462 150.43325H577.3772V157.17996H102.9462Z"/>
</svg>
